<?xml version="1.0" encoding="UTF-8"?>
<svg xmlns="http://www.w3.org/2000/svg" width="1400" viewBox="0 0 1400 4200"
     style="background:#ffffff; font-family: Arial, sans-serif;">

<!-- ─── Fond blanc ─── -->
<rect width="1400" height="4200" fill="#ffffff"/>

<!-- ─── Styles intégrés ─── -->
<style>
  text { font-family: Arial, sans-serif; fill: #1a1a1a; }
  .title  { font-size: 22px; font-weight: 700; }
  .mod    { font-size: 14px; font-weight: 700; }
  .uc     { font-size: 12px; }
  .small  { font-size: 11px; fill: #555; }
  .actor  { font-size: 13px; font-weight: 600; }
  .legend { font-size: 11px; fill: #444; }
</style>

<defs>
  <marker id="arr" viewBox="0 0 10 10" refX="9" refY="5"
          markerWidth="7" markerHeight="7" orient="auto-start-reverse">
    <path d="M1 1 L9 5 L1 9" fill="none" stroke="#555" stroke-width="1.5"
          stroke-linecap="round" stroke-linejoin="round"/>
  </marker>
  <marker id="arr-blue" viewBox="0 0 10 10" refX="9" refY="5"
          markerWidth="7" markerHeight="7" orient="auto-start-reverse">
    <path d="M1 1 L9 5 L1 9" fill="none" stroke="#185FA5" stroke-width="1.5"
          stroke-linecap="round" stroke-linejoin="round"/>
  </marker>
  <marker id="arr-open" viewBox="0 0 10 10" refX="9" refY="5"
          markerWidth="8" markerHeight="8" orient="auto-start-reverse">
    <path d="M1 2 L9 5 L1 8" fill="none" stroke="#444" stroke-width="1.8"
          stroke-linecap="round" stroke-linejoin="round"/>
  </marker>
</defs>

<!-- ══════════════════════════════════════════════
     TITRE
══════════════════════════════════════════════ -->
<text x="700" y="46" text-anchor="middle" class="title" fill="#0C447C">Diagramme de cas d'utilisation — EduTrack</text>
<line x1="60" y1="58" x2="1340" y2="58" stroke="#185FA5" stroke-width="1.5"/>
<text x="700" y="76" text-anchor="middle" style="font-size:12px;fill:#555;">Système éducatif camerounais · BAC · BEPC · GCE · Concours nationaux</text>

<!-- ══════════════════════════════════════════════
     LÉGENDE
══════════════════════════════════════════════ -->
<rect x="60" y="88" width="1280" height="48" rx="6" fill="#F8F8F8" stroke="#CCCCCC" stroke-width="0.8"/>
<text x="80" y="106" class="legend" font-weight="700">Légende :</text>
<line x1="150" y1="102" x2="195" y2="102" stroke="#555" stroke-width="1.2" stroke-dasharray="5 3"/>
<text x="200" y="106" class="legend">«include» (obligatoire)</text>
<line x1="360" y1="102" x2="405" y2="102" stroke="#555" stroke-width="1.2" stroke-dasharray="5 3" marker-end="url(#arr)"/>
<text x="410" y="106" class="legend">«extend» (conditionnel)</text>
<line x1="575" y1="102" x2="615" y2="102" stroke="#185FA5" stroke-width="1.5"/>
<text x="620" y="106" class="legend">Association acteur → UC</text>
<line x1="790" y1="102" x2="830" y2="102" stroke="#444" stroke-width="1.5" marker-end="url(#arr-open)"/>
<text x="835" y="106" class="legend">Généralisation (héritage)</text>
<ellipse cx="1020" cy="101" rx="28" ry="11" fill="none" stroke="#888" stroke-width="0.8"/>
<text x="1020" y="105" class="legend" text-anchor="middle" style="font-size:10px;">UC</text>
<text x="1055" y="106" class="legend">= cas d'utilisation</text>
<text x="80" y="128" class="legend">Acteur principal = bonhomme fil-de-fer · Acteur système = bonhomme en pointillés · Frontière système = rectangle en tirets</text>

<!-- ══════════════════════════════════════════════
     FRONTIÈRE SYSTÈME
══════════════════════════════════════════════ -->
<rect x="220" y="148" width="1000" height="3920" rx="16"
      fill="none" stroke="#185FA5" stroke-dasharray="10 5" stroke-width="1.5"/>
<text x="720" y="168" text-anchor="middle" style="font-size:13px;fill:#185FA5;font-weight:600;">Système EduTrack</text>

<!-- ══════════════════════════════════════════════
     ACTEURS PRINCIPAUX (gauche)
══════════════════════════════════════════════ -->
<!-- Élève -->
<circle cx="110" cy="480" r="18" fill="none" stroke="#185FA5" stroke-width="2"/>
<line x1="110" y1="498" x2="110" y2="540" stroke="#185FA5" stroke-width="2"/>
<line x1="82"  y1="516" x2="138" y2="516" stroke="#185FA5" stroke-width="2"/>
<line x1="110" y1="540" x2="88"  y2="568" stroke="#185FA5" stroke-width="2"/>
<line x1="110" y1="540" x2="132" y2="568" stroke="#185FA5" stroke-width="2"/>
<text x="110" y="586" text-anchor="middle" class="actor" fill="#185FA5">Élève</text>

<!-- Parent -->
<circle cx="110" cy="1280" r="18" fill="none" stroke="#0F6E56" stroke-width="2"/>
<line x1="110" y1="1298" x2="110" y2="1340" stroke="#0F6E56" stroke-width="2"/>
<line x1="82"  y1="1316" x2="138" y2="1316" stroke="#0F6E56" stroke-width="2"/>
<line x1="110" y1="1340" x2="88"  y2="1368" stroke="#0F6E56" stroke-width="2"/>
<line x1="110" y1="1340" x2="132" y2="1368" stroke="#0F6E56" stroke-width="2"/>
<text x="110" y="1386" text-anchor="middle" class="actor" fill="#0F6E56">Parent</text>

<!-- Enseignant -->
<circle cx="110" cy="2260" r="18" fill="none" stroke="#854F0B" stroke-width="2"/>
<line x1="110" y1="2278" x2="110" y2="2320" stroke="#854F0B" stroke-width="2"/>
<line x1="82"  y1="2296" x2="138" y2="2296" stroke="#854F0B" stroke-width="2"/>
<line x1="110" y1="2320" x2="88"  y2="2348" stroke="#854F0B" stroke-width="2"/>
<line x1="110" y1="2320" x2="132" y2="2348" stroke="#854F0B" stroke-width="2"/>
<text x="110" y="2366" text-anchor="middle" class="actor" fill="#854F0B">Enseignant</text>

<!-- Administrateur -->
<circle cx="110" cy="2980" r="18" fill="none" stroke="#6C3483" stroke-width="2"/>
<line x1="110" y1="2998" x2="110" y2="3040" stroke="#6C3483" stroke-width="2"/>
<line x1="82"  y1="3016" x2="138" y2="3016" stroke="#6C3483" stroke-width="2"/>
<line x1="110" y1="3040" x2="88"  y2="3068" stroke="#6C3483" stroke-width="2"/>
<line x1="110" y1="3040" x2="132" y2="3068" stroke="#6C3483" stroke-width="2"/>
<text x="110" y="3086" text-anchor="middle" class="actor" fill="#6C3483">Administrateur</text>

<!-- ══════════════════════════════════════════════
     ACTEURS SYSTÈMES (droite)
══════════════════════════════════════════════ -->
<!-- Moteur IA -->
<circle cx="1310" cy="1700" r="18" fill="none" stroke="#6C3483" stroke-width="2" stroke-dasharray="6 3"/>
<line x1="1310" y1="1718" x2="1310" y2="1760" stroke="#6C3483" stroke-width="2" stroke-dasharray="6 3"/>
<line x1="1282" y1="1736" x2="1338" y2="1736" stroke="#6C3483" stroke-width="2" stroke-dasharray="6 3"/>
<line x1="1310" y1="1760" x2="1288" y2="1788" stroke="#6C3483" stroke-width="2" stroke-dasharray="6 3"/>
<line x1="1310" y1="1760" x2="1332" y2="1788" stroke="#6C3483" stroke-width="2" stroke-dasharray="6 3"/>
<text x="1310" y="1806" text-anchor="middle" style="font-size:11px;fill:#6C3483;">«système»</text>
<text x="1310" y="1820" text-anchor="middle" class="actor" fill="#6C3483">Moteur IA</text>

<!-- Passerelle Paiement -->
<circle cx="1310" cy="3080" r="18" fill="none" stroke="#854F0B" stroke-width="2" stroke-dasharray="6 3"/>
<line x1="1310" y1="3098" x2="1310" y2="3140" stroke="#854F0B" stroke-width="2" stroke-dasharray="6 3"/>
<line x1="1282" y1="3116" x2="1338" y2="3116" stroke="#854F0B" stroke-width="2" stroke-dasharray="6 3"/>
<line x1="1310" y1="3140" x2="1288" y2="3168" stroke="#854F0B" stroke-width="2" stroke-dasharray="6 3"/>
<line x1="1310" y1="3140" x2="1332" y2="3168" stroke="#854F0B" stroke-width="2" stroke-dasharray="6 3"/>
<text x="1310" y="3186" text-anchor="middle" style="font-size:11px;fill:#854F0B;">«système»</text>
<text x="1310" y="3200" text-anchor="middle" class="actor" fill="#854F0B">Passerelle</text>
<text x="1310" y="3216" text-anchor="middle" class="actor" fill="#854F0B">Paiement</text>

<!-- ═══════════════════════════════════════════════════════
     HELPER: Macro UC ellipse
     Tous les UC sont positionnés manuellement ci-dessous
═══════════════════════════════════════════════════════ -->

<!-- ══════════════════════════════════════════════
     M1 — AUTHENTIFICATION
══════════════════════════════════════════════ -->
<rect x="232" y="188" width="976" height="180" rx="10"
      fill="#EBF5FB" stroke="#185FA5" stroke-dasharray="6 3" stroke-width="1.2" opacity="0.9"/>
<text x="252" y="208" class="mod" fill="#185FA5">M1 — Authentification et gestion de compte</text>

<ellipse cx="390" cy="256" rx="120" ry="22" fill="white" stroke="#185FA5" stroke-width="1.2"/>
<text x="390" y="260" text-anchor="middle" class="uc">S'inscrire / se connecter</text>

<ellipse cx="620" cy="256" rx="110" ry="22" fill="white" stroke="#185FA5" stroke-width="1.2"/>
<text x="620" y="260" text-anchor="middle" class="uc">Gérer son profil</text>

<ellipse cx="840" cy="256" rx="105" ry="22" fill="white" stroke="#185FA5" stroke-width="1.2"/>
<text x="840" y="260" text-anchor="middle" class="uc">Changer de langue</text>

<ellipse cx="1050" cy="256" rx="115" ry="22" fill="white" stroke="#185FA5" stroke-width="1.2"/>
<text x="1050" y="260" text-anchor="middle" class="uc">Réinitialiser mot de passe</text>

<ellipse cx="450" cy="326" rx="125" ry="22" fill="white" stroke="#185FA5" stroke-width="1.2"/>
<text x="450" y="330" text-anchor="middle" class="uc">Récupérer compte inactif</text>

<ellipse cx="780" cy="326" rx="120" ry="22" fill="white" stroke="#185FA5" stroke-width="1.2"/>
<text x="780" y="330" text-anchor="middle" class="uc">Vérifier accès fonctionnalités</text>

<!-- Assoc Élève → M1 -->
<line x1="128" y1="480" x2="268" y2="256" stroke="#185FA5" stroke-width="1.2"/>
<line x1="128" y1="480" x2="268" y2="326" stroke="#185FA5" stroke-width="1.2"/>

<!-- ══════════════════════════════════════════════
     M2 — EXERCICES ET ÉPREUVES
══════════════════════════════════════════════ -->
<rect x="232" y="388" width="976" height="230" rx="10"
      fill="#E1F5EE" stroke="#0F6E56" stroke-dasharray="6 3" stroke-width="1.2" opacity="0.9"/>
<text x="252" y="408" class="mod" fill="#0F6E56">M2 — Exercices et épreuves officielles</text>

<ellipse cx="380" cy="452" rx="125" ry="22" fill="white" stroke="#0F6E56" stroke-width="1.2"/>
<text x="380" y="456" text-anchor="middle" class="uc">Parcourir banque d'épreuves</text>

<ellipse cx="620" cy="452" rx="115" ry="22" fill="white" stroke="#0F6E56" stroke-width="1.2"/>
<text x="620" y="456" text-anchor="middle" class="uc">Filtrer par matière / niveau</text>

<ellipse cx="855" cy="452" rx="105" ry="22" fill="white" stroke="#0F6E56" stroke-width="1.2"/>
<text x="855" y="456" text-anchor="middle" class="uc">Passer une épreuve</text>

<ellipse cx="1060" cy="452" rx="110" ry="22" fill="white" stroke="#0F6E56" stroke-width="1.2"/>
<text x="1060" y="456" text-anchor="middle" class="uc">Activer mode minuterie</text>

<ellipse cx="380" cy="528" rx="125" ry="22" fill="white" stroke="#0F6E56" stroke-width="1.2"/>
<text x="380" y="532" text-anchor="middle" class="uc">Consulter corrigé détaillé</text>

<ellipse cx="620" cy="528" rx="120" ry="22" fill="white" stroke="#0F6E56" stroke-width="1.2"/>
<text x="620" y="532" text-anchor="middle" class="uc">Soumettre réponse / autocorrection</text>

<ellipse cx="900" cy="528" rx="120" ry="22" fill="white" stroke="#0F6E56" stroke-width="1.2"/>
<text x="900" y="532" text-anchor="middle" class="uc">Voir historique des résultats</text>

<!-- include: Passer épreuve → Activer minuterie -->
<line x1="960" y1="452" x2="948" y2="452" stroke="#555" stroke-width="1" stroke-dasharray="5 3" marker-end="url(#arr)"/>
<line x1="960" y1="452" x2="990" y2="452" stroke="#555" stroke-width="1" stroke-dasharray="5 3"/>
<text x="985" y="445" class="small" style="font-size:10px;">«include»</text>

<!-- include: Passer épreuve → Soumettre réponse -->
<line x1="855" y1="474" x2="740" y2="506" stroke="#555" stroke-width="1" stroke-dasharray="5 3" marker-end="url(#arr)"/>
<text x="780" y="500" class="small" style="font-size:10px;">«include»</text>

<!-- Assoc Élève → M2 -->
<line x1="128" y1="480" x2="255" y2="452" stroke="#185FA5" stroke-width="1.2"/>
<line x1="128" y1="480" x2="255" y2="528" stroke="#185FA5" stroke-width="1.2"/>

<!-- ══════════════════════════════════════════════
     M3 — DIAGNOSTIC & REMÉDIATION
══════════════════════════════════════════════ -->
<rect x="232" y="638" width="976" height="190" rx="10"
      fill="#FCEBEB" stroke="#A32D2D" stroke-dasharray="6 3" stroke-width="1.2" opacity="0.9"/>
<text x="252" y="658" class="mod" fill="#A32D2D">M3 — Diagnostic de niveau et remédiation IA</text>

<ellipse cx="380" cy="710" rx="125" ry="22" fill="white" stroke="#A32D2D" stroke-width="1.2"/>
<text x="380" y="714" text-anchor="middle" class="uc">Passer le diagnostic initial</text>

<ellipse cx="630" cy="710" rx="130" ry="22" fill="white" stroke="#A32D2D" stroke-width="1.2"/>
<text x="630" y="714" text-anchor="middle" class="uc">Visualiser carte des lacunes</text>

<ellipse cx="890" cy="710" rx="125" ry="22" fill="white" stroke="#A32D2D" stroke-width="1.2"/>
<text x="890" y="714" text-anchor="middle" class="uc">Consulter niveau global</text>

<ellipse cx="410" cy="788" rx="145" ry="22" fill="white" stroke="#A32D2D" stroke-width="1.2"/>
<text x="410" y="792" text-anchor="middle" class="uc">Accéder exercices de rattrapage</text>

<ellipse cx="760" cy="788" rx="150" ry="22" fill="white" stroke="#A32D2D" stroke-width="1.2"/>
<text x="760" y="792" text-anchor="middle" class="uc">Générer parcours de remédiation IA</text>

<!-- include: Diagnostic → Générer parcours -->
<line x1="505" y1="710" x2="610" y2="788" stroke="#555" stroke-width="1" stroke-dasharray="5 3" marker-end="url(#arr)"/>
<text x="538" y="760" class="small" style="font-size:10px;">«include»</text>

<!-- Assoc Élève → M3 -->
<line x1="128" y1="480" x2="255" y2="710" stroke="#185FA5" stroke-width="1.2"/>
<line x1="128" y1="480" x2="255" y2="788" stroke="#185FA5" stroke-width="1.2"/>

<!-- ══════════════════════════════════════════════
     M4 — MODULE PARENTAL
══════════════════════════════════════════════ -->
<rect x="232" y="848" width="976" height="190" rx="10"
      fill="#E1F5EE" stroke="#0F6E56" stroke-dasharray="6 3" stroke-width="1.2" opacity="0.9"/>
<text x="252" y="868" class="mod" fill="#0F6E56">M4 — Module parental</text>

<ellipse cx="400" cy="916" rx="145" ry="22" fill="white" stroke="#0F6E56" stroke-width="1.2"/>
<text x="400" y="920" text-anchor="middle" class="uc">Consulter tableau de bord enfant</text>

<ellipse cx="680" cy="916" rx="150" ry="22" fill="white" stroke="#0F6E56" stroke-width="1.2"/>
<text x="680" y="920" text-anchor="middle" class="uc">Recevoir rapport hebdomadaire auto</text>

<ellipse cx="990" cy="916" rx="130" ry="22" fill="white" stroke="#0F6E56" stroke-width="1.2"/>
<text x="990" y="920" text-anchor="middle" class="uc">Configurer alertes parentales</text>

<ellipse cx="380" cy="994" rx="140" ry="22" fill="white" stroke="#0F6E56" stroke-width="1.2"/>
<text x="380" y="998" text-anchor="middle" class="uc">Suivre temps d'étude certifié</text>

<ellipse cx="740" cy="994" rx="160" ry="22" fill="white" stroke="#0F6E56" stroke-width="1.2"/>
<text x="740" y="998" text-anchor="middle" class="uc">Recevoir alerte inactivité (&gt;3 jours)</text>

<!-- extend: Rapport → Alerte inactivité -->
<line x1="830" y1="916" x2="830" y2="972" stroke="#555" stroke-width="1" stroke-dasharray="5 3" marker-end="url(#arr)"/>
<text x="840" y="950" class="small" style="font-size:10px;">«extend»</text>

<!-- Assoc Parent → M4 -->
<line x1="128" y1="1280" x2="255" y2="916" stroke="#0F6E56" stroke-width="1.2"/>
<line x1="128" y1="1280" x2="255" y2="994" stroke="#0F6E56" stroke-width="1.2"/>

<!-- ══════════════════════════════════════════════
     M5 — ASSISTANT IA / CHATBOT
══════════════════════════════════════════════ -->
<rect x="232" y="1058" width="976" height="250" rx="10"
      fill="#EEEDFE" stroke="#6C3483" stroke-dasharray="6 3" stroke-width="1.2" opacity="0.9"/>
<text x="252" y="1078" class="mod" fill="#6C3483">M5 — Assistant intelligent IA (Chatbot pédagogique)</text>

<ellipse cx="380" cy="1126" rx="135" ry="22" fill="white" stroke="#6C3483" stroke-width="1.2"/>
<text x="380" y="1130" text-anchor="middle" class="uc">Poser question au chatbot</text>

<ellipse cx="660" cy="1126" rx="150" ry="22" fill="white" stroke="#6C3483" stroke-width="1.2"/>
<text x="660" y="1130" text-anchor="middle" class="uc">Demander explication d'une notion</text>

<ellipse cx="970" cy="1126" rx="125" ry="22" fill="white" stroke="#6C3483" stroke-width="1.2"/>
<text x="970" y="1130" text-anchor="middle" class="uc">Résoudre un exercice guidé</text>

<ellipse cx="380" cy="1206" rx="135" ry="22" fill="white" stroke="#6C3483" stroke-width="1.2"/>
<text x="380" y="1210" text-anchor="middle" class="uc">Consulter historique de chat</text>

<ellipse cx="670" cy="1206" rx="150" ry="22" fill="white" stroke="#6C3483" stroke-width="1.2"/>
<text x="670" y="1210" text-anchor="middle" class="uc">Micro-révisions quotidiennes (Duolingo)</text>

<ellipse cx="990" cy="1206" rx="130" ry="22" fill="white" stroke="#6C3483" stroke-width="1.2"/>
<text x="990" y="1210" text-anchor="middle" class="uc">Corriger production écrite IA</text>

<ellipse cx="600" cy="1278" rx="145" ry="22" fill="white" stroke="#6C3483" stroke-width="1.5" stroke-dasharray="4 2"/>
<text x="600" y="1282" text-anchor="middle" class="uc" fill="#6C3483">«include» Générer réponse IA</text>

<!-- include: Chatbot → Générer réponse IA -->
<line x1="380" y1="1148" x2="508" y2="1256" stroke="#555" stroke-width="1" stroke-dasharray="5 3" marker-end="url(#arr)"/>
<line x1="660" y1="1148" x2="620" y2="1256" stroke="#555" stroke-width="1" stroke-dasharray="5 3" marker-end="url(#arr)"/>
<line x1="970" y1="1148" x2="745" y2="1256" stroke="#555" stroke-width="1" stroke-dasharray="5 3" marker-end="url(#arr)"/>

<!-- Assoc Élève → M5 -->
<line x1="128" y1="480" x2="245" y2="1126" stroke="#185FA5" stroke-width="1.2"/>
<line x1="128" y1="480" x2="245" y2="1206" stroke="#185FA5" stroke-width="1.2"/>

<!-- Assoc Moteur IA → Générer réponse IA -->
<line x1="1292" y1="1700" x2="745" y2="1278" stroke="#6C3483" stroke-width="1" stroke-dasharray="5 3"/>

<!-- ══════════════════════════════════════════════
     M6 — SIMULATION D'EXAMENS
══════════════════════════════════════════════ -->
<rect x="232" y="1328" width="976" height="190" rx="10"
      fill="#EBF5FB" stroke="#185FA5" stroke-dasharray="6 3" stroke-width="1.2" opacity="0.9"/>
<text x="252" y="1348" class="mod" fill="#185FA5">M6 — Simulation d'examens officiels</text>

<ellipse cx="410" cy="1400" rx="155" ry="22" fill="white" stroke="#185FA5" stroke-width="1.2"/>
<text x="410" y="1404" text-anchor="middle" class="uc">Démarrer une simulation d'examen</text>

<ellipse cx="710" cy="1400" rx="150" ry="22" fill="white" stroke="#185FA5" stroke-width="1.2"/>
<text x="710" y="1404" text-anchor="middle" class="uc">Voir rapport de performance détaillé</text>

<ellipse cx="1010" cy="1400" rx="140" ry="22" fill="white" stroke="#185FA5" stroke-width="1.2"/>
<text x="1010" y="1404" text-anchor="middle" class="uc">Activer mode examen blanc</text>

<ellipse cx="410" cy="1478" rx="160" ry="22" fill="white" stroke="#185FA5" stroke-width="1.2"/>
<text x="410" y="1482" text-anchor="middle" class="uc">Calculer note selon coeff. officiels</text>

<ellipse cx="840" cy="1478" rx="160" ry="22" fill="white" stroke="#185FA5" stroke-width="1.2"/>
<text x="840" y="1482" text-anchor="middle" class="uc">Consulter historique des simulations</text>

<!-- include: Démarrer → Calculer note -->
<line x1="410" y1="1422" x2="410" y2="1456" stroke="#555" stroke-width="1" stroke-dasharray="5 3" marker-end="url(#arr)"/>
<text x="418" y="1444" class="small" style="font-size:10px;">«include»</text>

<!-- extend: Démarrer → Mode examen blanc -->
<line x1="565" y1="1400" x2="868" y2="1400" stroke="#555" stroke-width="1" stroke-dasharray="5 3" marker-end="url(#arr)"/>
<text x="710" y="1392" class="small" style="font-size:10px;">«extend»</text>

<!-- Assoc Élève → M6 -->
<line x1="128" y1="480" x2="250" y2="1400" stroke="#185FA5" stroke-width="1.2"/>

<!-- ══════════════════════════════════════════════
     M7 — EMPLOI DU TEMPS
══════════════════════════════════════════════ -->
<rect x="232" y="1538" width="976" height="190" rx="10"
      fill="#EAF3DE" stroke="#3B6D11" stroke-dasharray="6 3" stroke-width="1.2" opacity="0.9"/>
<text x="252" y="1558" class="mod" fill="#3B6D11">M7 — Emploi du temps personnalisé</text>

<ellipse cx="420" cy="1606" rx="155" ry="22" fill="white" stroke="#3B6D11" stroke-width="1.2"/>
<text x="420" y="1610" text-anchor="middle" class="uc">Générer planning hebdomadaire IA</text>

<ellipse cx="730" cy="1606" rx="150" ry="22" fill="white" stroke="#3B6D11" stroke-width="1.2"/>
<text x="730" y="1610" text-anchor="middle" class="uc">Déclarer disponibilités horaires</text>

<ellipse cx="1020" cy="1606" rx="130" ry="22" fill="white" stroke="#3B6D11" stroke-width="1.2"/>
<text x="1020" y="1610" text-anchor="middle" class="uc">Ajuster le planning</text>

<ellipse cx="420" cy="1686" rx="155" ry="22" fill="white" stroke="#3B6D11" stroke-width="1.2"/>
<text x="420" y="1690" text-anchor="middle" class="uc">Recevoir rappels / notifications push</text>

<ellipse cx="840" cy="1686" rx="165" ry="22" fill="white" stroke="#3B6D11" stroke-width="1.2"/>
<text x="840" y="1690" text-anchor="middle" class="uc">Activer mode vacances (révision intens.)</text>

<!-- include: Générer planning → Déclarer disponibilités -->
<line x1="575" y1="1606" x2="580" y2="1606" stroke="#555" stroke-width="1" stroke-dasharray="5 3" marker-end="url(#arr)"/>
<text x="570" y="1598" class="small" style="font-size:10px;">«include»</text>

<!-- Assoc Élève → M7 -->
<line x1="128" y1="480" x2="265" y2="1606" stroke="#185FA5" stroke-width="1.2"/>

<!-- Assoc Moteur IA → Générer planning -->
<line x1="1292" y1="1700" x2="575" y2="1620" stroke="#6C3483" stroke-width="1" stroke-dasharray="5 3"/>

<!-- ══════════════════════════════════════════════
     M8 — ESPACE ENSEIGNANT
══════════════════════════════════════════════ -->
<rect x="232" y="1748" width="976" height="190" rx="10"
      fill="#FAEEDA" stroke="#854F0B" stroke-dasharray="6 3" stroke-width="1.2" opacity="0.9"/>
<text x="252" y="1768" class="mod" fill="#854F0B">M8 — Espace enseignant (Module Pro)</text>

<ellipse cx="390" cy="1816" rx="140" ry="22" fill="white" stroke="#854F0B" stroke-width="1.2"/>
<text x="390" y="1820" text-anchor="middle" class="uc">Publier cours / exercices</text>

<ellipse cx="680" cy="1816" rx="155" ry="22" fill="white" stroke="#854F0B" stroke-width="1.2"/>
<text x="680" y="1820" text-anchor="middle" class="uc">Créer évaluation personnalisée</text>

<ellipse cx="980" cy="1816" rx="140" ry="22" fill="white" stroke="#854F0B" stroke-width="1.2"/>
<text x="980" y="1820" text-anchor="middle" class="uc">Suivre élèves abonnés</text>

<ellipse cx="390" cy="1896" rx="155" ry="22" fill="white" stroke="#854F0B" stroke-width="1.2"/>
<text x="390" y="1900" text-anchor="middle" class="uc">Consulter statistiques d'engagement</text>

<ellipse cx="740" cy="1896" rx="160" ry="22" fill="white" stroke="#854F0B" stroke-width="1.2"/>
<text x="740" y="1900" text-anchor="middle" class="uc">Notifier élèves (nouveau contenu)</text>

<!-- Assoc Enseignant → M8 -->
<line x1="128" y1="2260" x2="250" y2="1816" stroke="#854F0B" stroke-width="1.2"/>
<line x1="128" y1="2260" x2="250" y2="1896" stroke="#854F0B" stroke-width="1.2"/>

<!-- ══════════════════════════════════════════════
     M9 — GAMIFICATION & MODE FOCUS
══════════════════════════════════════════════ -->
<rect x="232" y="1958" width="976" height="190" rx="10"
      fill="#FAECE7" stroke="#993C1D" stroke-dasharray="6 3" stroke-width="1.2" opacity="0.9"/>
<text x="252" y="1978" class="mod" fill="#993C1D">M9 — Gamification et mode Focus</text>

<ellipse cx="390" cy="2026" rx="140" ry="22" fill="white" stroke="#993C1D" stroke-width="1.2"/>
<text x="390" y="2030" text-anchor="middle" class="uc">Consulter badges / trophées</text>

<ellipse cx="670" cy="2026" rx="145" ry="22" fill="white" stroke="#993C1D" stroke-width="1.2"/>
<text x="670" y="2030" text-anchor="middle" class="uc">Rejoindre un challenge hebdomadaire</text>

<ellipse cx="980" cy="2026" rx="130" ry="22" fill="white" stroke="#993C1D" stroke-width="1.2"/>
<text x="980" y="2030" text-anchor="middle" class="uc">Voir le classement amis</text>

<ellipse cx="390" cy="2106" rx="160" ry="22" fill="white" stroke="#993C1D" stroke-width="1.2"/>
<text x="390" y="2110" text-anchor="middle" class="uc">Activer mode Focus (Pomodoro)</text>

<ellipse cx="740" cy="2106" rx="155" ry="22" fill="white" stroke="#993C1D" stroke-width="1.2"/>
<text x="740" y="2110" text-anchor="middle" class="uc">Générer rapport Focus certifié</text>

<ellipse cx="1060" cy="2106" rx="120" ry="22" fill="white" stroke="#993C1D" stroke-width="1.2"/>
<text x="1060" y="2110" text-anchor="middle" class="uc">Convertir points en récompenses</text>

<!-- include: Mode Focus → Rapport certifié -->
<line x1="550" y1="2106" x2="583" y2="2106" stroke="#555" stroke-width="1" stroke-dasharray="5 3" marker-end="url(#arr)"/>
<text x="558" y="2098" class="small" style="font-size:10px;">«include»</text>

<!-- Assoc Élève → M9 -->
<line x1="128" y1="480" x2="230" y2="2026" stroke="#185FA5" stroke-width="1.2"/>
<line x1="128" y1="480" x2="230" y2="2106" stroke="#185FA5" stroke-width="1.2"/>

<!-- ══════════════════════════════════════════════
     M10 — ORIENTATION IA
══════════════════════════════════════════════ -->
<rect x="232" y="2168" width="976" height="190" rx="10"
      fill="#EEEDFE" stroke="#6C3483" stroke-dasharray="6 3" stroke-width="1.2" opacity="0.9"/>
<text x="252" y="2188" class="mod" fill="#6C3483">M10 — Orientation scolaire et professionnelle IA</text>

<ellipse cx="390" cy="2236" rx="145" ry="22" fill="white" stroke="#6C3483" stroke-width="1.2"/>
<text x="390" y="2240" text-anchor="middle" class="uc">Passer le test de profil IA</text>

<ellipse cx="690" cy="2236" rx="160" ry="22" fill="white" stroke="#6C3483" stroke-width="1.2"/>
<text x="690" y="2240" text-anchor="middle" class="uc">Obtenir recommandation de série</text>

<ellipse cx="1010" cy="2236" rx="140" ry="22" fill="white" stroke="#6C3483" stroke-width="1.2"/>
<text x="1010" y="2240" text-anchor="middle" class="uc">Explorer fiches métiers</text>

<ellipse cx="420" cy="2316" rx="165" ry="22" fill="white" stroke="#6C3483" stroke-width="1.2"/>
<text x="420" y="2320" text-anchor="middle" class="uc">Préparer concours nationaux (ENAM…)</text>

<ellipse cx="830" cy="2316" rx="155" ry="22" fill="white" stroke="#6C3483" stroke-width="1.2"/>
<text x="830" y="2320" text-anchor="middle" class="uc">Comparer filières universitaires</text>

<!-- include: Test profil → Recommandation série -->
<line x1="535" y1="2236" x2="528" y2="2236" stroke="#555" stroke-width="1" stroke-dasharray="5 3" marker-end="url(#arr)"/>
<text x="520" y="2228" class="small" style="font-size:10px;">«include»</text>

<!-- Assoc Élève → M10 -->
<line x1="128" y1="480" x2="250" y2="2236" stroke="#185FA5" stroke-width="1.2"/>

<!-- Assoc Moteur IA → M10 -->
<line x1="1295" y1="1700" x2="1155" y2="2236" stroke="#6C3483" stroke-width="1" stroke-dasharray="5 3"/>

<!-- ══════════════════════════════════════════════
     M11 — ABONNEMENT & PAIEMENT
══════════════════════════════════════════════ -->
<rect x="232" y="2378" width="976" height="190" rx="10"
      fill="#FAEEDA" stroke="#854F0B" stroke-dasharray="6 3" stroke-width="1.2" opacity="0.9"/>
<text x="252" y="2398" class="mod" fill="#854F0B">M11 — Abonnement et paiement</text>

<ellipse cx="380" cy="2446" rx="145" ry="22" fill="white" stroke="#854F0B" stroke-width="1.2"/>
<text x="380" y="2450" text-anchor="middle" class="uc">Souscrire à un abonnement</text>

<ellipse cx="680" cy="2446" rx="165" ry="22" fill="white" stroke="#854F0B" stroke-width="1.2"/>
<text x="680" y="2450" text-anchor="middle" class="uc">Choisir formule (Basic/Standard/Premium)</text>

<ellipse cx="1020" cy="2446" rx="125" ry="22" fill="white" stroke="#854F0B" stroke-width="1.2"/>
<text x="1020" y="2450" text-anchor="middle" class="uc">Upgrader / résilier</text>

<ellipse cx="390" cy="2526" rx="145" ry="22" fill="white" stroke="#854F0B" stroke-width="1.2"/>
<text x="390" y="2530" text-anchor="middle" class="uc">Effectuer paiement mobile money</text>

<ellipse cx="800" cy="2526" rx="160" ry="22" fill="white" stroke="#854F0B" stroke-width="1.2"/>
<text x="800" y="2530" text-anchor="middle" class="uc">Recevoir confirmation / facture</text>

<!-- include: Souscrire → Choisir formule -->
<line x1="525" y1="2446" x2="513" y2="2446" stroke="#555" stroke-width="1" stroke-dasharray="5 3" marker-end="url(#arr)"/>
<text x="512" y="2438" class="small" style="font-size:10px;">«include»</text>

<!-- include: Souscrire → Paiement mobile -->
<line x1="380" y1="2468" x2="390" y2="2504" stroke="#555" stroke-width="1" stroke-dasharray="5 3" marker-end="url(#arr)"/>
<text x="400" y="2488" class="small" style="font-size:10px;">«include»</text>

<!-- Assoc Élève → M11 -->
<line x1="128" y1="480" x2="235" y2="2446" stroke="#185FA5" stroke-width="1.2"/>

<!-- Assoc Passerelle → Effectuer paiement -->
<line x1="1292" y1="3080" x2="535" y2="2526" stroke="#854F0B" stroke-width="1.2" stroke-dasharray="5 3"/>

<!-- ══════════════════════════════════════════════
     M12 — RÉMUNÉRATION ENSEIGNANT
══════════════════════════════════════════════ -->
<rect x="232" y="2588" width="976" height="150" rx="10"
      fill="#FAEEDA" stroke="#854F0B" stroke-dasharray="6 3" stroke-width="1.2" opacity="0.9"/>
<text x="252" y="2608" class="mod" fill="#854F0B">M12 — Rémunération enseignant</text>

<ellipse cx="390" cy="2658" rx="155" ry="22" fill="white" stroke="#854F0B" stroke-width="1.2"/>
<text x="390" y="2662" text-anchor="middle" class="uc">Consulter gains et statistiques</text>

<ellipse cx="700" cy="2658" rx="155" ry="22" fill="white" stroke="#854F0B" stroke-width="1.2"/>
<text x="700" y="2662" text-anchor="middle" class="uc">Générer fiche de rémunération</text>

<ellipse cx="1030" cy="2658" rx="135" ry="22" fill="white" stroke="#854F0B" stroke-width="1.2"/>
<text x="1030" y="2662" text-anchor="middle" class="uc">Recevoir versement (virement)</text>

<!-- include: Fiche → Versement -->
<line x1="855" y1="2658" x2="893" y2="2658" stroke="#555" stroke-width="1" stroke-dasharray="5 3" marker-end="url(#arr)"/>
<text x="870" y="2650" class="small" style="font-size:10px;">«include»</text>

<!-- Assoc Enseignant → M12 -->
<line x1="128" y1="2260" x2="235" y2="2658" stroke="#854F0B" stroke-width="1.2"/>

<!-- Assoc Passerelle → Versement -->
<line x1="1292" y1="3080" x2="1165" y2="2680" stroke="#854F0B" stroke-width="1.2" stroke-dasharray="5 3"/>

<!-- ══════════════════════════════════════════════
     M13 — ADMINISTRATION
══════════════════════════════════════════════ -->
<rect x="232" y="2758" width="976" height="250" rx="10"
      fill="#EEEDFE" stroke="#6C3483" stroke-dasharray="6 3" stroke-width="1.2" opacity="0.9"/>
<text x="252" y="2778" class="mod" fill="#6C3483">M13 — Administration du système</text>

<ellipse cx="380" cy="2826" rx="140" ry="22" fill="white" stroke="#6C3483" stroke-width="1.2"/>
<text x="380" y="2830" text-anchor="middle" class="uc">Gérer les utilisateurs</text>

<ellipse cx="680" cy="2826" rx="140" ry="22" fill="white" stroke="#6C3483" stroke-width="1.2"/>
<text x="680" y="2830" text-anchor="middle" class="uc">Gérer les abonnements</text>

<ellipse cx="980" cy="2826" rx="140" ry="22" fill="white" stroke="#6C3483" stroke-width="1.2"/>
<text x="980" y="2830" text-anchor="middle" class="uc">Modérer / valider contenus</text>

<ellipse cx="380" cy="2906" rx="160" ry="22" fill="white" stroke="#6C3483" stroke-width="1.2"/>
<text x="380" y="2910" text-anchor="middle" class="uc">Consulter tableau de bord global</text>

<ellipse cx="720" cy="2906" rx="140" ry="22" fill="white" stroke="#6C3483" stroke-width="1.2"/>
<text x="720" y="2910" text-anchor="middle" class="uc">Configurer le système</text>

<ellipse cx="1060" cy="2906" rx="125" ry="22" fill="white" stroke="#6C3483" stroke-width="1.2"/>
<text x="1060" y="2910" text-anchor="middle" class="uc">Gérer sécurité et accès</text>

<ellipse cx="530" cy="2980" rx="145" ry="22" fill="white" stroke="#6C3483" stroke-width="1.2"/>
<text x="530" y="2984" text-anchor="middle" class="uc">Valider contenus enseignants</text>

<ellipse cx="900" cy="2980" rx="145" ry="22" fill="white" stroke="#6C3483" stroke-width="1.2"/>
<text x="900" y="2984" text-anchor="middle" class="uc">Exporter rapports statistiques</text>

<!-- include: Gérer utilisateurs → Valider contenus -->
<line x1="380" y1="2848" x2="450" y2="2958" stroke="#555" stroke-width="1" stroke-dasharray="5 3" marker-end="url(#arr)"/>

<!-- Assoc Administrateur → M13 -->
<line x1="128" y1="2980" x2="238" y2="2826" stroke="#6C3483" stroke-width="1.2"/>
<line x1="128" y1="2980" x2="238" y2="2906" stroke="#6C3483" stroke-width="1.2"/>
<line x1="128" y1="2980" x2="385" y2="2980" stroke="#6C3483" stroke-width="1.2"/>

<!-- ══════════════════════════════════════════════
     M14 — NOTIFICATIONS TRANSVERSES
══════════════════════════════════════════════ -->
<rect x="232" y="3048" width="976" height="130" rx="10"
      fill="#F1EFE8" stroke="#888" stroke-dasharray="6 3" stroke-width="1.2" opacity="0.9"/>
<text x="252" y="3068" class="mod" fill="#555">M14 — Notifications (cas transverse)</text>

<ellipse cx="380" cy="3110" rx="145" ry="22" fill="white" stroke="#888" stroke-width="1.2"/>
<text x="380" y="3114" text-anchor="middle" class="uc">Recevoir notification push</text>

<ellipse cx="680" cy="3110" rx="145" ry="22" fill="white" stroke="#888" stroke-width="1.2"/>
<text x="680" y="3114" text-anchor="middle" class="uc">Recevoir notification e-mail</text>

<ellipse cx="980" cy="3110" rx="145" ry="22" fill="white" stroke="#888" stroke-width="1.2"/>
<text x="980" y="3114" text-anchor="middle" class="uc">Recevoir notification SMS</text>

<!-- Assoc Élève & Parent → Notifs -->
<line x1="128" y1="480"  x2="235" y2="3110" stroke="#185FA5" stroke-width="0.8" stroke-dasharray="3 3"/>
<line x1="128" y1="1280" x2="235" y2="3110" stroke="#0F6E56" stroke-width="0.8" stroke-dasharray="3 3"/>

<!-- ══════════════════════════════════════════════
     M15 — HÉRITAGE UTILISATEUR
══════════════════════════════════════════════ -->
<rect x="232" y="3198" width="976" height="200" rx="10"
      fill="#F1EFE8" stroke="#888" stroke-dasharray="6 3" stroke-width="1.2" opacity="0.9"/>
<text x="252" y="3218" class="mod" fill="#555">M15 — Généralisation : héritage Utilisateur</text>

<!-- Classe parent Utilisateur -->
<ellipse cx="720" cy="3270" rx="110" ry="26" fill="white" stroke="#444" stroke-width="2"/>
<text x="720" y="3268" text-anchor="middle" class="uc" font-weight="700">«Utilisateur»</text>
<text x="720" y="3284" text-anchor="middle" class="small">S'inscrire · Se connecter · Gérer profil</text>

<!-- 4 acteurs spécialisés -->
<ellipse cx="340" cy="3358" rx="70" ry="22" fill="#EBF5FB" stroke="#185FA5" stroke-width="1.5"/>
<text x="340" y="3362" text-anchor="middle" class="uc" fill="#185FA5" font-weight="700">Élève</text>

<ellipse cx="540" cy="3358" rx="70" ry="22" fill="#E1F5EE" stroke="#0F6E56" stroke-width="1.5"/>
<text x="540" y="3362" text-anchor="middle" class="uc" fill="#0F6E56" font-weight="700">Parent</text>

<ellipse cx="750" cy="3358" rx="80" ry="22" fill="#FAEEDA" stroke="#854F0B" stroke-width="1.5"/>
<text x="750" y="3362" text-anchor="middle" class="uc" fill="#854F0B" font-weight="700">Enseignant</text>

<ellipse cx="980" cy="3358" rx="100" ry="22" fill="#EEEDFE" stroke="#6C3483" stroke-width="1.5"/>
<text x="980" y="3362" text-anchor="middle" class="uc" fill="#6C3483" font-weight="700">Administrateur</text>

<!-- Flèches de généralisation (triangle ouvert) -->
<line x1="630" y1="3270" x2="375" y2="3336" stroke="#444" stroke-width="1.5" marker-end="url(#arr-open)"/>
<line x1="660" y1="3270" x2="540" y2="3336" stroke="#444" stroke-width="1.5" marker-end="url(#arr-open)"/>
<line x1="730" y1="3270" x2="750" y2="3336" stroke="#444" stroke-width="1.5" marker-end="url(#arr-open)"/>
<line x1="790" y1="3270" x2="910" y2="3336" stroke="#444" stroke-width="1.5" marker-end="url(#arr-open)"/>

<!-- ══════════════════════════════════════════════
     FIN — PIED DE PAGE
══════════════════════════════════════════════ -->
<line x1="60" y1="3420" x2="1340" y2="3420" stroke="#CCCCCC" stroke-width="1"/>
<text x="700" y="3444" text-anchor="middle" style="font-size:11px;fill:#888;">EduTrack · Diagramme de cas d'utilisation UML 2.x · 15 modules · 4 acteurs principaux · 2 acteurs système · ~55 UC · Avril 2025</text>

</svg>
